<svg width="30" height="60" viewBox="0 0 166 266" fill="none" xmlns="http://www.w3.org/2000/svg">
    <path d="M78.5128 161.939C80.4812 163.875 83.6469 163.85 85.5836 161.881C87.5204 159.913 87.4947 156.747 85.5264 154.81L78.5128 161.939ZM63.4292 133.068C61.4608 131.132 58.2951 131.157 56.3583 133.126C54.4216 135.094 54.4473 138.26 56.4156 140.197L63.4292 133.068ZM108.602 140.216C110.581 138.291 110.625 135.125 108.699 133.146C106.774 131.167 103.608 131.123 101.629 133.048L108.602 140.216ZM79.4061 154.667C77.4267 156.592 77.383 159.758 79.3086 161.737C81.2341 163.716 84.3996 163.76 86.379 161.835L79.4061 154.667ZM78.5128 185.939C80.4812 187.875 83.6469 187.85 85.5836 185.881C87.5204 183.913 87.4947 180.747 85.5264 178.81L78.5128 185.939ZM63.4292 157.068C61.4608 155.132 58.2951 155.157 56.3583 157.126C54.4216 159.094 54.4473 162.26 56.4156 164.197L63.4292 157.068ZM108.602 164.216C110.581 162.291 110.625 159.125 108.699 157.146C106.774 155.167 103.608 155.123 101.629 157.048L108.602 164.216ZM79.4061 178.667C77.4267 180.592 77.383 183.758 79.3086 185.737C81.2341 187.716 84.3996 187.76 86.379 185.835L79.4061 178.667ZM79 10H87V0H79V10ZM156 79V187H166V79H156ZM87 256H79V266H87V256ZM10 187V79H0V187H10ZM79 256C40.8924 256 10 225.108 10 187H0C0 230.63 35.3695 266 79 266V256ZM156 187C156 225.108 125.108 256 87 256V266C130.63 266 166 230.63 166 187H156ZM87 10C125.108 10 156 40.8924 156 79H166C166 35.3695 130.63 0 87 0V10ZM79 0C35.3695 0 0 35.3695 0 79H10C10 40.8924 40.8924 10 79 10V0ZM5 106.5H161V96.5H5V106.5ZM93 37.5V70.5H103V37.5H93ZM74 70.5V37.5H64V70.5H74ZM83.5 80C78.2533 80 74 75.7467 74 70.5H64C64 81.2696 72.7304 90 83.5 90V80ZM93 70.5C93 75.7467 88.7467 80 83.5 80V90C94.2696 90 103 81.2696 103 70.5H93ZM83.5 28C88.7467 28 93 32.2533 93 37.5H103C103 26.7304 94.2696 18 83.5 18V28ZM83.5 18C72.7304 18 64 26.7304 64 37.5H74C74 32.2533 78.2533 28 83.5 28V18ZM85.5264 154.81L63.4292 133.068L56.4156 140.197L78.5128 161.939L85.5264 154.81ZM101.629 133.048L79.4061 154.667L86.379 161.835L108.602 140.216L101.629 133.048ZM85.5264 178.81L63.4292 157.068L56.4156 164.197L78.5128 185.939L85.5264 178.81ZM101.629 157.048L79.4061 178.667L86.379 185.835L108.602 164.216L101.629 157.048Z" fill="black"/>
</svg>
